<?xml version="1.0" encoding="UTF-8"?>
<svg width="512" height="512" viewBox="0 0 512 512" fill="none" xmlns="http://www.w3.org/2000/svg">
  <!-- Background Circle -->
  <circle cx="256" cy="256" r="240" fill="#4F46E5" fill-opacity="0.1"/>
  
  <!-- Stethoscope -->
  <path d="M256 160C220.7 160 192 188.7 192 224V256C192 291.3 220.7 320 256 320C291.3 320 320 291.3 320 256V224C320 188.7 291.3 160 256 160Z" fill="#4F46E5"/>
  <path d="M256 352C220.7 352 192 380.7 192 416V448C192 483.3 220.7 512 256 512C291.3 512 320 483.3 320 448V416C320 380.7 291.3 352 256 352Z" fill="#4F46E5"/>
  
  <!-- Heart -->
  <path d="M256 96C256 96 224 128 224 160C224 192 256 224 256 256C256 224 288 192 288 160C288 128 256 96 256 96Z" fill="#4F46E5"/>
  
  <!-- Wave -->
  <path d="M160 256C160 256 192 288 224 256C256 224 288 256 320 256" stroke="#4F46E5" stroke-width="16" stroke-linecap="round"/>
</svg> 